<svg width="19" height="16" viewBox="0 0 19 16" fill="none" xmlns="http://www.w3.org/2000/svg">
<path d="M9.03652 0.018751C8.97714 0.025001 8.79531 0.046876 8.63203 0.0656259C7.71914 0.168751 6.62441 0.603126 5.88222 1.15625C4.94336 1.85313 4.2791 2.85938 4.07871 3.89063C4.00449 4.26563 4.01562 5.10938 4.09726 5.45313C4.36074 6.58125 5.11777 7.625 6.13828 8.275L6.39062 8.4375L6.28672 8.46875C5.83769 8.6125 5.64472 8.68438 5.2625 8.84375C3.61484 9.54063 2.27519 10.5938 1.32148 11.9375C0.542187 13.0375 0.104297 14.2656 0.0152344 15.625L-0.0107422 16H0.735156H1.48477V15.8469C1.48477 14.7875 2.00801 13.325 2.70937 12.425C3.78926 11.0344 5.23652 10.0813 6.99922 9.59688C8.67656 9.13438 10.3242 9.13438 12.0016 9.59688C13.7643 10.0813 15.2115 11.0344 16.2914 12.425C16.9928 13.325 17.516 14.7875 17.516 15.8469V16H18.2656H19.0115L18.9855 15.625C18.8965 14.2656 18.4586 13.0375 17.6793 11.9375C16.7256 10.5938 15.3859 9.54063 13.7383 8.84375C13.356 8.68438 13.1631 8.6125 12.7141 8.46875L12.6102 8.4375L12.8625 8.275C13.883 7.625 14.64 6.58125 14.9035 5.45313C14.9852 5.10938 14.9963 4.26563 14.9221 3.89063C14.7625 3.06875 14.2689 2.19688 13.6158 1.57188C12.8031 0.800001 11.6602 0.256251 10.4689 0.0750009C10.1832 0.031251 9.23691 -0.00624905 9.03652 0.018751ZM10.1275 1.29688C12.3096 1.59688 13.8014 3.32813 13.4525 5.15313C13.0963 6.99063 11.0404 8.24688 8.87324 7.95313C6.69121 7.65313 5.19941 5.92188 5.54824 4.09688C5.90449 2.25938 7.96035 1.00313 10.1275 1.29688Z" fill="#FF7143"/>
</svg>
