<svg width="549" height="270" viewBox="0 0 549 270" fill="none" xmlns="http://www.w3.org/2000/svg">
<path d="M274.5 241.332C426.102 241.332 549 238.06 549 234.023C549 229.987 426.102 226.715 274.5 226.715C122.898 226.715 0 229.987 0 234.023C0 238.06 122.898 241.332 274.5 241.332Z" fill="#E6E6E6"/>
<path d="M420.789 154.832C420.442 154.836 420.096 154.841 419.745 154.841C419.393 154.841 419.047 154.836 418.7 154.832C400.325 154.434 387.007 143.506 390.397 132.04L398.663 104.07L400.752 96.9929L437.787 97.594L440.038 104.518L448.898 131.769C452.649 143.298 439.33 154.434 420.789 154.832Z" fill="#3F3D56"/>
<path opacity="0.2" d="M440.038 104.518C433.723 107.953 426.56 109.723 419.287 109.645C412.013 109.566 404.894 107.642 398.663 104.07L400.752 96.9929L437.787 97.594L440.038 104.518Z" fill="black"/>
<path d="M438.475 132.969C440.075 127.293 445.333 119.106 460.079 109.235C485.796 92.0176 470.455 79.1077 469.79 78.5668C468.395 77.4322 468.601 76.1582 470.269 75.7229C471.237 75.5386 472.236 75.5535 473.198 75.7667C474.16 75.9799 475.064 76.3863 475.847 76.9588C476.68 77.6144 495.891 93.2295 466.871 112.655C440.754 130.141 446.307 141.554 446.37 141.664C447.07 142.885 445.948 143.861 443.861 143.848C441.775 143.835 439.515 142.836 438.813 141.616C438.665 141.358 436.984 138.252 438.475 132.969Z" fill="#3F3D56"/>
<path d="M402.651 158.908C402.09 158.908 401.535 158.803 401.016 158.598C400.498 158.394 400.027 158.094 399.63 157.717C399.233 157.339 398.918 156.891 398.703 156.397C398.489 155.904 398.378 155.375 398.378 154.841V137.215C398.378 136.136 398.828 135.102 399.63 134.339C400.431 133.576 401.518 133.148 402.651 133.148C403.785 133.148 404.872 133.576 405.673 134.339C406.474 135.102 406.925 136.136 406.925 137.215V154.841C406.925 155.375 406.814 155.904 406.599 156.397C406.385 156.891 406.07 157.339 405.673 157.717C405.276 158.094 404.805 158.394 404.287 158.598C403.768 158.803 403.213 158.908 402.651 158.908V158.908Z" fill="#3F3D56"/>
<path d="M406.398 117.064C406.164 117.55 405.831 117.986 405.419 118.349C405.007 118.712 404.525 118.994 403.998 119.179C403.472 119.364 402.912 119.449 402.352 119.429C401.791 119.408 401.24 119.283 400.73 119.059L383.908 111.692C382.879 111.241 382.081 110.419 381.689 109.408C381.297 108.396 381.342 107.278 381.816 106.299C382.289 105.32 383.152 104.559 384.214 104.185C385.276 103.811 386.45 103.853 387.48 104.302L404.302 111.669C404.812 111.892 405.271 112.209 405.652 112.601C406.033 112.993 406.33 113.453 406.524 113.954C406.719 114.455 406.808 114.987 406.786 115.521C406.765 116.055 406.633 116.579 406.398 117.064V117.064Z" fill="#3F3D56"/>
<path d="M433.091 117.064C433.325 117.55 433.658 117.986 434.07 118.349C434.482 118.712 434.965 118.994 435.491 119.179C436.017 119.365 436.577 119.449 437.138 119.429C437.698 119.408 438.249 119.283 438.759 119.059L455.582 111.692C456.611 111.242 457.41 110.42 457.803 109.408C458.197 108.396 458.151 107.277 457.678 106.297C457.204 105.317 456.341 104.557 455.278 104.182C454.215 103.808 453.039 103.851 452.009 104.302L435.187 111.669C434.677 111.892 434.218 112.209 433.837 112.601C433.456 112.993 433.16 113.453 432.965 113.954C432.77 114.455 432.681 114.987 432.703 115.521C432.724 116.055 432.856 116.579 433.091 117.064V117.064Z" fill="#3F3D56"/>
<path d="M436.838 158.908C437.399 158.908 437.954 158.803 438.473 158.598C438.991 158.394 439.462 158.094 439.859 157.717C440.256 157.339 440.571 156.891 440.786 156.397C441 155.904 441.111 155.375 441.111 154.841V137.215C441.111 136.136 440.661 135.102 439.859 134.339C439.058 133.576 437.971 133.148 436.838 133.148C435.704 133.148 434.617 133.576 433.816 134.339C433.015 135.102 432.564 136.136 432.564 137.215V154.841C432.564 155.375 432.675 155.904 432.89 156.397C433.104 156.891 433.419 157.339 433.816 157.717C434.213 158.094 434.684 158.394 435.202 158.598C435.721 158.803 436.276 158.908 436.838 158.908V158.908Z" fill="#3F3D56"/>
<path d="M454.696 44.801C455.065 44.3583 455.332 43.8461 455.478 43.2982C455.624 42.7502 455.647 42.179 455.544 41.6222L453.218 28.5995L450.893 15.5767C450.767 14.8736 450.449 14.2143 449.971 13.6651C449.493 13.1159 448.872 12.6962 448.169 12.4482C447.466 12.2001 446.708 12.1324 445.969 12.252C445.23 12.3715 444.538 12.674 443.961 13.1291L433.275 21.5576L426.837 26.6354C422.543 25.9087 418.155 25.8458 413.84 26.4489L407.639 21.5576L396.953 13.1291C396.376 12.674 395.683 12.3715 394.945 12.252C394.206 12.1324 393.447 12.2001 392.744 12.4482C392.042 12.6962 391.42 13.1159 390.942 13.6651C390.464 14.2143 390.146 14.8736 390.021 15.5767L387.695 28.5995L385.369 41.6222C385.245 42.3067 385.309 43.0101 385.555 43.6639C381.57 49.4797 379.294 56.2059 378.965 63.1426C378.636 70.0793 380.266 76.9733 383.684 83.1073C387.103 89.2414 392.187 94.3914 398.405 98.0218C404.624 101.652 411.751 103.63 419.045 103.75C426.339 103.87 433.534 102.128 439.881 98.7039C446.228 95.2802 451.495 90.3003 455.134 84.2824C458.774 78.2644 460.653 71.4282 460.576 64.4847C460.499 57.5413 458.468 50.7444 454.696 44.801V44.801Z" fill="#3F3D56"/>
<path d="M395.882 18.4657C395.629 18.466 395.377 18.5094 395.14 18.5939C394.791 18.7148 394.482 18.922 394.245 19.1942C394.008 19.4665 393.851 19.7938 393.791 20.1428L390.971 35.9353C390.909 36.2835 390.944 36.641 391.073 36.9721C391.202 37.3032 391.42 37.5961 391.706 37.8214C391.991 38.0467 392.334 38.1964 392.7 38.2556C393.066 38.3147 393.442 38.2812 393.789 38.1584L409.568 32.5869C409.916 32.4641 410.224 32.2563 410.461 31.9844C410.697 31.7126 410.855 31.3862 410.917 31.0381C410.979 30.6901 410.944 30.3326 410.815 30.0015C410.686 29.6705 410.467 29.3776 410.182 29.1523L410.182 29.1519L397.223 18.931C396.847 18.6312 396.372 18.4665 395.882 18.4657V18.4657Z" fill="#E6E6E6"/>
<path d="M445.032 18.4657C444.541 18.4665 444.066 18.6312 443.69 18.931L430.732 29.1523C430.446 29.3776 430.228 29.6705 430.099 30.0015C429.97 30.3326 429.935 30.6901 429.997 31.0381C430.059 31.3862 430.216 31.7126 430.453 31.9844C430.69 32.2563 430.997 32.4641 431.345 32.5869L447.124 38.1584C447.472 38.2812 447.848 38.3147 448.213 38.2556C448.579 38.1964 448.922 38.0467 449.208 37.8214C449.493 37.5961 449.712 37.3032 449.841 36.9721C449.97 36.641 450.005 36.2835 449.943 35.9353L447.123 20.1428C447.062 19.7938 446.906 19.4665 446.669 19.1942C446.432 18.922 446.123 18.7148 445.774 18.5939C445.536 18.5094 445.285 18.466 445.032 18.4657Z" fill="#E6E6E6"/>
<path d="M419.745 75.752C422.891 75.752 425.442 73.3239 425.442 70.3287C425.442 67.3336 422.891 64.9055 419.745 64.9055C416.598 64.9055 414.047 67.3336 414.047 70.3287C414.047 73.3239 416.598 75.752 419.745 75.752Z" fill="#E6E6E6"/>
<path d="M419.745 68.9729C421.842 68.9729 423.543 68.3659 423.543 67.6171C423.543 66.8683 421.842 66.2613 419.745 66.2613C417.647 66.2613 415.946 66.8683 415.946 67.6171C415.946 68.3659 417.647 68.9729 419.745 68.9729Z" fill="#3F3D56"/>
<path d="M416.896 73.4923H422.119V79.5934C422.119 79.9198 422.051 80.243 421.92 80.5446C421.789 80.8462 421.596 81.1202 421.354 81.351C421.111 81.5818 420.823 81.7649 420.507 81.8898C420.19 82.0148 419.85 82.079 419.507 82.079V82.079C418.815 82.079 418.15 81.8172 417.661 81.351C417.171 80.8849 416.896 80.2526 416.896 79.5934V73.4923H416.896Z" fill="#FF6584"/>
<path d="M420.062 11.9781C419.788 12.5186 419.522 13.0651 419.272 13.6227C416.325 20.1638 415.331 27.3519 416.4 34.396C416.934 33.6577 417.496 32.8886 418.068 32.111C416.844 25.3505 417.532 18.4018 420.062 11.9781V11.9781Z" fill="#3F3D56"/>
<path d="M424.335 16.9493C424.061 17.4899 423.795 18.0364 423.545 18.594C420.598 25.1351 419.604 32.3233 420.673 39.3673C421.208 38.6291 421.769 37.8599 422.341 37.0823C421.117 30.3218 421.805 23.3731 424.335 16.9493V16.9493Z" fill="#3F3D56"/>
<path d="M437.51 114.546L436.908 107.259L436.306 99.9718C436.273 99.5784 436.132 99.2 435.898 98.8747C435.663 98.5495 435.342 98.2887 434.968 98.1188C434.594 97.9489 434.179 97.8757 433.766 97.9067C433.352 97.9376 432.955 98.0716 432.613 98.2951L426.284 102.435L421.662 105.458C421.367 105.129 421 104.864 420.587 104.683C420.174 104.502 419.725 104.408 419.27 104.408C418.815 104.408 418.366 104.502 417.952 104.683C417.539 104.864 417.173 105.129 416.877 105.458L412.256 102.435L405.926 98.295C405.585 98.0715 405.187 97.9376 404.774 97.9066C404.361 97.8757 403.946 97.9488 403.572 98.1188C403.197 98.2887 402.877 98.5494 402.642 98.8747C402.407 99.2 402.266 99.5783 402.234 99.9718L401.632 107.259L401.03 114.546C400.997 114.939 401.074 115.334 401.253 115.69C401.431 116.046 401.705 116.351 402.047 116.575C402.389 116.798 402.786 116.932 403.2 116.963C403.613 116.994 404.028 116.921 404.402 116.751L411.333 113.604L417.028 111.018C417.321 111.301 417.67 111.525 418.055 111.678C418.44 111.831 418.853 111.91 419.27 111.91C419.687 111.91 420.1 111.831 420.485 111.678C420.87 111.525 421.219 111.301 421.512 111.018L427.207 113.604L434.138 116.751C434.512 116.921 434.927 116.994 435.34 116.963C435.753 116.932 436.151 116.798 436.493 116.575C436.834 116.351 437.108 116.046 437.287 115.69C437.465 115.334 437.542 114.939 437.51 114.546V114.546Z" fill="#1D266E"/>
<path d="M412.148 65.8094C412.934 65.8094 413.572 65.2024 413.572 64.4536C413.572 63.7048 412.934 63.0978 412.148 63.0978C411.361 63.0978 410.723 63.7048 410.723 64.4536C410.723 65.2024 411.361 65.8094 412.148 65.8094Z" fill="#E6E6E6"/>
<path d="M427.341 65.8094C428.128 65.8094 428.766 65.2024 428.766 64.4536C428.766 63.7048 428.128 63.0978 427.341 63.0978C426.555 63.0978 425.917 63.7048 425.917 64.4536C425.917 65.2024 426.555 65.8094 427.341 65.8094Z" fill="#E6E6E6"/>
<path d="M144.139 142.854C144.486 142.858 144.832 142.863 145.184 142.863C145.535 142.863 145.882 142.858 146.228 142.854C164.603 142.456 177.922 131.528 174.531 120.062L166.265 92.0922L164.176 85.0149L127.141 85.6159L124.89 92.5396L116.03 119.791C112.279 131.32 125.598 142.456 144.139 142.854Z" fill="#3F3D56"/>
<path opacity="0.2" d="M124.89 92.5396C131.205 95.9753 138.369 97.7452 145.642 97.6665C152.915 97.5879 160.034 95.6636 166.265 92.0922L164.176 85.0149L127.141 85.6159L124.89 92.5396Z" fill="black"/>
<path d="M121.955 117.675C117.958 113.197 109.525 107.939 91.7594 105.024C60.7751 99.9362 68.8374 82.0195 69.1951 81.2598C69.9455 79.6664 69.1867 78.5988 67.4838 78.8845C66.5255 79.1125 65.6293 79.5328 64.8556 80.1173C64.0818 80.7018 63.4482 81.437 62.9974 82.2737C62.5395 83.2053 52.1961 105.143 87.1581 110.881C118.624 116.048 118.736 128.625 118.728 128.75C118.644 130.139 120.098 130.564 121.977 129.703C123.857 128.841 125.451 127.017 125.537 125.629C125.555 125.336 125.677 121.844 121.955 117.675Z" fill="#3F3D56"/>
<path d="M162.277 146.93C162.838 146.93 163.394 146.825 163.912 146.62C164.43 146.416 164.902 146.116 165.298 145.739C165.695 145.361 166.01 144.913 166.225 144.419C166.439 143.926 166.55 143.397 166.55 142.863V125.237C166.549 124.159 166.098 123.126 165.297 122.364C164.495 121.602 163.409 121.175 162.277 121.175C161.144 121.175 160.058 121.602 159.257 122.364C158.456 123.126 158.005 124.159 158.003 125.237V142.863C158.003 143.397 158.114 143.926 158.329 144.419C158.543 144.913 158.858 145.361 159.255 145.739C159.652 146.116 160.123 146.416 160.641 146.62C161.16 146.825 161.716 146.93 162.277 146.93V146.93Z" fill="#3F3D56"/>
<path d="M158.53 105.086C158.765 105.572 159.097 106.008 159.509 106.371C159.921 106.734 160.404 107.016 160.93 107.201C161.456 107.386 162.016 107.471 162.577 107.451C163.137 107.43 163.688 107.305 164.198 107.081L181.021 99.7144C181.531 99.4915 181.99 99.175 182.372 98.7831C182.754 98.3911 183.051 97.9314 183.246 97.4302C183.441 96.929 183.53 96.3961 183.509 95.8619C183.487 95.3278 183.355 94.803 183.121 94.3174C182.886 93.8318 182.553 93.395 182.141 93.032C181.729 92.669 181.245 92.3869 180.719 92.2018C180.192 92.0167 179.632 91.9322 179.071 91.9532C178.51 91.9742 177.958 92.1003 177.448 92.3242L160.626 99.6911C160.116 99.9144 159.658 100.231 159.276 100.623C158.895 101.015 158.599 101.475 158.404 101.976C158.209 102.477 158.12 103.009 158.142 103.543C158.164 104.077 158.295 104.601 158.53 105.086V105.086Z" fill="#3F3D56"/>
<path d="M131.837 105.086C131.603 105.572 131.27 106.008 130.858 106.371C130.447 106.734 129.964 107.016 129.437 107.201C128.911 107.386 128.352 107.471 127.791 107.451C127.23 107.43 126.679 107.305 126.169 107.081L109.347 99.7144C108.836 99.4915 108.377 99.175 107.995 98.7831C107.613 98.3911 107.317 97.9314 107.121 97.4302C106.926 96.929 106.837 96.3961 106.859 95.8619C106.88 95.3278 107.012 94.803 107.247 94.3174C107.481 93.8318 107.814 93.395 108.226 93.032C108.639 92.669 109.122 92.3869 109.649 92.2018C110.176 92.0167 110.736 91.9322 111.297 91.9532C111.858 91.9742 112.409 92.1003 112.919 92.3242L129.741 99.6911C130.251 99.9144 130.71 100.231 131.091 100.623C131.472 101.015 131.769 101.475 131.963 101.976C132.158 102.477 132.247 103.009 132.225 103.543C132.204 104.077 132.072 104.601 131.837 105.086Z" fill="#3F3D56"/>
<path d="M128.091 146.93C127.529 146.93 126.974 146.825 126.455 146.62C125.937 146.416 125.466 146.116 125.069 145.739C124.672 145.361 124.357 144.913 124.143 144.419C123.928 143.926 123.817 143.397 123.817 142.863V125.237C123.819 124.159 124.27 123.126 125.071 122.364C125.872 121.602 126.958 121.175 128.091 121.175C129.223 121.175 130.309 121.602 131.11 122.364C131.912 123.126 132.363 124.159 132.364 125.237V142.863C132.364 143.397 132.253 143.926 132.039 144.419C131.824 144.913 131.509 145.361 131.112 145.739C130.716 146.116 130.244 146.416 129.726 146.62C129.208 146.825 128.652 146.93 128.091 146.93V146.93Z" fill="#3F3D56"/>
<path d="M179.373 31.6859C179.619 31.032 179.683 30.3286 179.559 29.6442L177.233 16.6214L174.907 3.59865C174.782 2.89551 174.464 2.23622 173.986 1.68704C173.508 1.13787 172.886 0.718171 172.184 0.470112C171.481 0.222054 170.722 0.154379 169.984 0.273903C169.245 0.393427 168.552 0.695936 167.975 1.15102L157.289 9.57951L151.088 14.4708C146.773 13.8677 142.385 13.9307 138.091 14.6574L131.654 9.57949L120.968 1.151C120.391 0.695917 119.698 0.39341 118.959 0.273885C118.221 0.15436 117.462 0.222027 116.759 0.470085C116.057 0.718144 115.435 1.13785 114.957 1.68703C114.479 2.2362 114.161 2.89549 114.035 3.59863L111.71 16.6214L109.384 29.6442C109.281 30.201 109.304 30.7722 109.45 31.3201C109.596 31.868 109.863 32.3802 110.232 32.8229C106.455 38.7677 104.421 45.5674 104.341 52.5143C104.262 59.4613 106.139 66.3016 109.779 72.3234C113.419 78.3452 118.688 83.3285 125.038 86.7547C131.387 90.1808 138.586 91.9246 145.883 91.8046C153.181 91.6846 160.312 89.7051 166.534 86.0722C172.755 82.4393 177.84 77.2858 181.259 71.1478C184.678 65.0099 186.307 58.1119 185.975 51.1718C185.643 44.2316 183.363 37.5029 179.373 31.6859H179.373Z" fill="#3F3D56"/>
<path d="M167.705 6.953L154.747 17.1738L154.746 17.1743C154.461 17.3996 154.242 17.6924 154.113 18.0235C153.984 18.3545 153.949 18.712 154.011 19.0601C154.074 19.4082 154.231 19.7345 154.468 20.0064C154.704 20.2782 155.012 20.486 155.36 20.6088L171.139 26.1803C171.487 26.3031 171.862 26.3367 172.228 26.2775C172.594 26.2183 172.937 26.0686 173.222 25.8433C173.508 25.618 173.726 25.3251 173.855 24.994C173.984 24.663 174.02 24.3054 173.957 23.9573L171.137 8.1647C171.077 7.81579 170.92 7.48841 170.683 7.2162C170.446 6.94399 170.137 6.73676 169.788 6.61581C169.551 6.53136 169.3 6.48795 169.046 6.4876C168.556 6.48848 168.081 6.65318 167.705 6.953V6.953Z" fill="#E6E6E6"/>
<path d="M119.155 6.61581C118.806 6.73676 118.497 6.94398 118.26 7.21619C118.022 7.4884 117.866 7.81579 117.806 8.1647L114.985 23.9573C114.923 24.3054 114.958 24.663 115.088 24.994C115.217 25.3251 115.435 25.618 115.721 25.8433C116.006 26.0686 116.349 26.2183 116.715 26.2775C117.081 26.3367 117.456 26.3031 117.804 26.1803L133.583 20.6088C133.931 20.486 134.239 20.2782 134.475 20.0064C134.712 19.7345 134.869 19.4082 134.931 19.0601C134.994 18.712 134.958 18.3545 134.829 18.0235C134.7 17.6924 134.482 17.3996 134.197 17.1743L121.238 6.953C120.862 6.65317 120.387 6.48847 119.897 6.4876C119.643 6.48795 119.392 6.53137 119.155 6.61581Z" fill="#E6E6E6"/>
<path d="M145.184 63.7739C148.33 63.7739 150.881 61.3458 150.881 58.3507C150.881 55.3555 148.33 52.9275 145.184 52.9275C142.037 52.9275 139.486 55.3555 139.486 58.3507C139.486 61.3458 142.037 63.7739 145.184 63.7739Z" fill="#E6E6E6"/>
<path d="M145.184 56.9949C147.282 56.9949 148.982 56.3879 148.982 55.6391C148.982 54.8903 147.282 54.2833 145.184 54.2833C143.086 54.2833 141.385 54.8903 141.385 55.6391C141.385 56.3879 143.086 56.9949 145.184 56.9949Z" fill="#3F3D56"/>
<path d="M145.421 70.101C145.078 70.101 144.739 70.0367 144.422 69.9118C144.105 69.7869 143.817 69.6038 143.574 69.373C143.332 69.1422 143.14 68.8681 143.008 68.5666C142.877 68.265 142.81 67.9418 142.81 67.6153V61.5142H148.032L148.032 67.6153C148.032 67.9418 147.965 68.265 147.834 68.5666C147.702 68.8681 147.51 69.1422 147.268 69.373C147.025 69.6038 146.737 69.7869 146.42 69.9118C146.104 70.0367 145.764 70.101 145.421 70.101V70.101Z" fill="#FF6584"/>
<path d="M144.867 0C145.141 0.540588 145.406 1.08702 145.657 1.64463C148.603 8.18578 149.597 15.3739 148.528 22.418C147.994 21.6797 147.432 20.9105 146.861 20.1329C148.084 13.3724 147.396 6.42372 144.867 0V0Z" fill="#3F3D56"/>
<path d="M140.593 4.97129C140.867 5.51188 141.133 6.05831 141.383 6.61592C144.33 13.1571 145.324 20.3452 144.255 27.3893C143.721 26.651 143.159 25.8818 142.587 25.1042C143.811 18.3437 143.123 11.395 140.593 4.97129V4.97129Z" fill="#3F3D56"/>
<path d="M127.419 23.479L128.021 16.1921L128.622 8.9051C128.655 8.51164 128.796 8.13327 129.031 7.808C129.265 7.48273 129.586 7.22202 129.96 7.05209C130.335 6.88216 130.749 6.80899 131.163 6.83993C131.576 6.87087 131.973 7.00483 132.315 7.22836L138.644 11.3681L143.266 14.391C143.561 14.0618 143.928 13.7975 144.341 13.6163C144.754 13.435 145.204 13.3412 145.658 13.3412C146.113 13.3412 146.563 13.435 146.976 13.6163C147.389 13.7975 147.756 14.0618 148.051 14.391L152.673 11.3681L159.002 7.22836C159.343 7.00483 159.741 6.87087 160.154 6.83993C160.568 6.80899 160.982 6.88216 161.357 7.05209C161.731 7.22202 162.051 7.48273 162.286 7.808C162.521 8.13327 162.662 8.51164 162.694 8.9051L163.296 16.1921L163.898 23.479C163.931 23.8725 163.854 24.2671 163.675 24.6233C163.497 24.9795 163.223 25.2847 162.881 25.5082C162.54 25.7317 162.142 25.8657 161.729 25.8966C161.315 25.9276 160.901 25.8544 160.526 25.6845L153.595 22.5372L147.9 19.9513C147.607 20.2339 147.258 20.4583 146.873 20.6114C146.489 20.7646 146.076 20.8435 145.658 20.8435C145.241 20.8435 144.828 20.7646 144.443 20.6114C144.059 20.4583 143.709 20.2339 143.416 19.9513L137.721 22.5372L130.79 25.6845C130.416 25.8544 130.002 25.9276 129.588 25.8967C129.175 25.8657 128.777 25.7318 128.436 25.5083C128.094 25.2847 127.82 24.9795 127.641 24.6233C127.463 24.2671 127.386 23.8725 127.419 23.479V23.479Z" fill="#1D266E"/>
<path d="M151.356 52.4755C151.356 53.2243 151.994 52.4755 152.781 52.4755C153.567 52.4755 154.205 53.2243 154.205 52.4755C154.204 52.1164 154.054 51.7723 153.787 51.5186C153.52 51.265 153.158 51.1226 152.781 51.1226C152.403 51.1226 152.041 51.265 151.774 51.5186C151.507 51.7723 151.357 52.1164 151.356 52.4755V52.4755Z" fill="#E6E6E6"/>
<path d="M139.011 52.4755C139.011 53.2243 138.373 52.4755 137.587 52.4755C136.8 52.4755 136.162 53.2243 136.162 52.4755C136.163 52.1164 136.314 51.7723 136.581 51.5186C136.848 51.265 137.21 51.1226 137.587 51.1226C137.964 51.1226 138.326 51.265 138.593 51.5186C138.86 51.7723 139.01 52.1164 139.011 52.4755V52.4755Z" fill="#E6E6E6"/>
<path d="M297.046 154.843V146.225H251.775V146.764V154.843V224.326V232.944H260.829H297.046V224.326H260.829V154.843H297.046Z" fill="#3F3D56"/>
<path d="M319.116 146.225V232.944H364.387V146.225H319.116ZM355.333 224.326H328.17V154.843H355.333V224.326Z" fill="#1D266E"/>
<path d="M193.488 224.326V146.764H184.434V224.326V232.944H193.488H229.705V224.326H193.488Z" fill="#1D266E"/>
<path d="M164.062 154.843V146.225H118.791V146.764V154.843V185.006V193.625V224.326V232.944H127.846H164.062V224.326H127.846V193.625H164.062V185.006H127.846V154.843H164.062Z" fill="#3F3D56"/>
<path d="M518.308 154.843V146.225H473.037V146.764V154.843V185.006V193.625V224.326V232.944H482.092H518.308V224.326H482.092V193.625H518.308V185.006H482.092V154.843H518.308Z" fill="#1D266E"/>
<path d="M88.2333 146.764V217.99L64.3604 195.268L64.306 195.32L64.2554 195.272L39.8501 218.502V146.495H30.7958V232.675H39.8501V230.689L64.3103 207.407L88.2333 230.179V232.944H97.2877V146.764H88.2333Z" fill="#3F3D56"/>
<path d="M443.045 146.764V148.749L418.585 172.031L394.662 149.261V146.495H385.607V232.675H394.662V161.448L418.535 184.171L418.59 184.119L418.64 184.167L443.045 160.937V232.944H452.099V146.764H443.045Z" fill="#3F3D56"/>
<path d="M206.908 93.6752C209.977 93.6752 212.465 91.3069 212.465 88.3855C212.465 85.464 209.977 83.0957 206.908 83.0957C203.838 83.0957 201.35 85.464 201.35 88.3855C201.35 91.3069 203.838 93.6752 206.908 93.6752Z" fill="#1D266E"/>
<path d="M69.8236 152.45C72.8929 152.45 75.381 150.082 75.381 147.16C75.381 144.239 72.8929 141.871 69.8236 141.871C66.7543 141.871 64.2661 144.239 64.2661 147.16C64.2661 150.082 66.7543 152.45 69.8236 152.45Z" fill="#1D266E"/>
<path d="M179.738 270C182.807 270 185.295 267.632 185.295 264.71C185.295 261.789 182.807 259.421 179.738 259.421C176.668 259.421 174.18 261.789 174.18 264.71C174.18 267.632 176.668 270 179.738 270Z" fill="#1D266E"/>
<path d="M319.292 109.544C322.361 109.544 324.849 107.176 324.849 104.255C324.849 101.333 322.361 98.965 319.292 98.965C316.222 98.965 313.734 101.333 313.734 104.255C313.734 107.176 316.222 109.544 319.292 109.544Z" fill="#1D266E"/>
<path d="M482.928 265.298C485.997 265.298 488.486 262.93 488.486 260.008C488.486 257.087 485.997 254.719 482.928 254.719C479.859 254.719 477.371 257.087 477.371 260.008C477.371 262.93 479.859 265.298 482.928 265.298Z" fill="#1D266E"/>
<path d="M488.485 126.589C491.555 126.589 494.043 124.221 494.043 121.299C494.043 118.378 491.555 116.01 488.485 116.01C485.416 116.01 482.928 118.378 482.928 121.299C482.928 124.221 485.416 126.589 488.485 126.589Z" fill="#1D266E"/>
<path d="M418.091 221.805C421.16 221.805 423.648 219.436 423.648 216.515C423.648 213.593 421.16 211.225 418.091 211.225C415.022 211.225 412.534 213.593 412.534 216.515C412.534 219.436 415.022 221.805 418.091 221.805Z" fill="#1D266E"/>
</svg>
