<svg width="552" height="404" viewBox="0 0 552 404" fill="none" xmlns="http://www.w3.org/2000/svg">
<g clip-path="url(#clip0_1_491)">
<path d="M220.89 38.9688C214.165 50.1437 226.829 68.9728 214.066 72.8828L215.117 71.8686C222.821 62.7284 206.719 43.3826 214.423 34.2424C215.62 32.9017 216.647 31.4284 217.484 29.8538" fill="#2F2E41"/>
<path d="M283.874 202.913C284.094 201.795 284.058 200.644 283.767 199.541C283.476 198.437 282.938 197.409 282.191 196.528C281.444 195.647 280.505 194.935 279.442 194.441C278.378 193.948 277.215 193.686 276.035 193.673L259.411 147.088L250.21 158.4L267.786 201.929C267.895 203.842 268.728 205.651 270.127 207.012C271.526 208.373 273.393 209.192 275.376 209.313C277.359 209.434 279.32 208.85 280.886 207.67C282.452 206.491 283.515 204.798 283.873 202.913L283.874 202.913Z" fill="#FFB8B8"/>
<path d="M210.799 90.439C210.799 90.439 210.282 73.5758 225.916 83.236C241.55 92.8963 275.59 183.389 275.59 183.389L258.65 192.229L220.195 109.418L210.799 90.439Z" fill="#1D266E"/>
<path d="M256.924 379.463L249.117 382.68L232.534 355.167L244.057 350.418L256.924 379.463Z" fill="#FFB6B6"/>
<path d="M266.824 390.81L261.226 393.118L257.968 388.432L257.667 394.585L242.818 400.705C242.107 400.998 241.316 401.064 240.563 400.894C239.809 400.723 239.132 400.325 238.63 399.757C238.128 399.189 237.827 398.481 237.771 397.736C237.716 396.991 237.909 396.249 238.322 395.618L246.68 382.831L244.396 377.677L257.187 373.255L266.824 390.81Z" fill="#2F2E41"/>
<path d="M134.544 388.795L126.065 388.395L123.627 356.658L136.143 357.248L134.544 388.795Z" fill="#FFB6B6"/>
<path d="M138.301 403.176L132.22 402.89L131.416 397.301L128.355 402.708L112.227 401.947C111.454 401.911 110.713 401.637 110.113 401.166C109.512 400.695 109.084 400.051 108.89 399.328C108.696 398.605 108.746 397.842 109.034 397.148C109.322 396.455 109.832 395.869 110.49 395.476L123.804 387.503L124.088 381.905L137.595 383.323L138.301 403.176Z" fill="#2F2E41"/>
<path d="M384.387 383.738C384.949 383.758 385.503 383.61 385.975 383.316C386.447 383.022 386.814 382.594 387.026 382.092C387.238 381.59 387.284 381.037 387.16 380.509C387.035 379.98 386.745 379.501 386.328 379.137C386.257 378.873 386.205 378.683 386.134 378.419C386.658 377.097 387.579 375.957 388.78 375.144C389.98 374.331 391.405 373.882 392.872 373.855C394.339 373.829 395.78 374.225 397.012 374.993C398.243 375.762 399.209 376.868 399.785 378.169C403.106 385.473 407.385 393.027 405.374 401.125C418.907 372.765 413.863 337.688 393.214 313.731C387.542 310.785 382.917 305.501 381.665 299.328C384.466 300.215 387.926 297.993 385.799 295.175C384.878 294.099 383.948 293.032 383.028 291.956C393.527 280.963 406.334 297.971 394.804 312.783C398.669 317.367 402.026 322.327 404.821 327.584C404.133 321.981 404.833 316.301 406.864 311.01C408.927 306.077 412.844 301.903 416.287 297.623C420.474 292.409 429.219 294.716 429.854 301.279C425.956 302.555 425.501 308.008 429.982 308.713C428.931 320.941 420.766 332.246 409.421 337.709C413.743 349.061 415.506 361.172 414.594 373.234C416.467 359.13 432.109 355.568 443.01 349.869C443.703 349.431 444.513 349.197 445.342 349.196C446.17 349.195 446.981 349.426 447.675 349.862C448.37 350.298 448.918 350.919 449.252 351.65C449.587 352.381 449.694 353.19 449.56 353.979C448.054 354.586 446.613 355.335 445.261 356.217C444.627 356.637 444.143 357.235 443.876 357.93C443.608 358.625 443.57 359.383 443.767 360.1C443.964 360.816 444.385 361.457 444.974 361.933C445.563 362.41 446.29 362.699 447.056 362.761C441.664 375.996 427.473 384.98 412.807 385.065C411.456 390.985 409.471 396.753 406.883 402.277L385.118 402.477C385.037 402.245 384.965 402.005 384.892 401.772C386.908 401.876 388.929 401.741 390.911 401.371C385.521 395.332 381.368 392.265 384.386 383.738L384.387 383.738Z" fill="#F2F2F2"/>
<path d="M155.965 182.492C155.965 182.492 138.721 227.818 138.442 232.891C138.164 237.963 133.246 302.106 129.122 305.833C124.997 309.56 112.388 367.341 122.199 371.86C132.01 376.38 162.964 368.893 162.964 368.893L173.733 300.64L177.391 248.349C177.391 248.349 188.527 371.484 208.726 371.122C228.924 370.76 253.537 363.341 253.537 363.341L225.266 288.77C225.266 288.77 225.666 200.487 219.113 182.681C212.56 164.875 155.965 182.492 155.965 182.492Z" fill="#2F2E41"/>
<path d="M207.132 65.7118L184.039 67.752L180.319 78.7673C180.319 78.7673 160.993 89.0045 165.272 93.6553C169.551 98.3062 164.315 129.649 164.315 129.649L165.498 155.09C165.498 155.09 164.227 172.716 160.425 176.777C156.623 180.838 146.677 190.797 153.705 186.032C178.348 169.327 221.42 183.423 221.42 183.423L215.267 147.071C215.267 147.071 229.243 87.5536 223.728 82.5272C218.212 77.5007 213.008 76.8654 213.008 76.8654L207.132 65.7118Z" fill="#1D266E"/>
<path d="M85.7871 181.021C86.9473 180.812 88.046 180.361 89.0059 179.699C89.9658 179.036 90.7634 178.179 91.3427 177.187C91.9219 176.196 92.2687 175.093 92.3585 173.958C92.4483 172.823 92.2791 171.683 91.8626 170.618L130.812 138.745L116.541 134.59L80.8896 166.208C79.0809 167.001 77.6368 168.407 76.8309 170.158C76.025 171.91 75.9133 173.886 76.517 175.712C77.1206 177.538 78.3977 179.087 80.1063 180.065C81.8148 181.044 83.8361 181.384 85.7871 181.021V181.021Z" fill="#FFB8B8"/>
<path d="M184.705 97.65C184.705 97.65 192.379 82.49 174.007 85.0796C155.635 87.6693 85.9658 156.599 85.9658 156.599L97.6251 171.385L168.037 111.209L184.705 97.65Z" fill="#1D266E"/>
<path d="M154.787 71.9353L81.9457 161.945C80.6856 163.507 80.119 165.487 80.37 167.452C80.621 169.416 81.6692 171.204 83.2848 172.425C100.2 212.04 150.807 241.417 210.339 268.081C211.958 269.298 214.011 269.845 216.048 269.603C218.085 269.361 219.94 268.349 221.204 266.79L294.045 176.78C295.306 175.219 295.874 173.238 295.623 171.273C295.372 169.308 294.323 167.52 292.706 166.3C242.748 139.091 199.809 107.567 165.652 70.6438C164.032 69.4284 161.979 68.8818 159.943 69.1239C157.906 69.366 156.052 70.377 154.787 71.9353V71.9353Z" fill="#E6E6E6"/>
<path d="M288.933 174.733L266.761 202.13C253.217 218.766 233.398 229.556 211.633 232.143C189.868 234.73 167.927 228.904 150.6 215.938L88.4644 169.157C87.5439 168.464 86.9462 167.447 86.8022 166.329C86.6582 165.211 86.9799 164.084 87.6966 163.194L158.083 76.2183C158.803 75.3318 159.859 74.7572 161.018 74.6205C162.178 74.4837 163.346 74.7961 164.266 75.4891C195.698 114.637 237.772 145.102 288.171 168.775C289.09 169.468 289.686 170.485 289.829 171.602C289.972 172.719 289.649 173.845 288.933 174.733Z" fill="white"/>
<path d="M153.334 121.072L138.894 138.915C138.511 139.387 137.949 139.694 137.331 139.767C136.714 139.84 136.092 139.674 135.601 139.305C135.111 138.935 134.793 138.394 134.716 137.798C134.64 137.203 134.812 136.602 135.194 136.129L149.634 118.286C149.823 118.052 150.059 117.855 150.327 117.709C150.595 117.562 150.891 117.467 151.197 117.431C151.503 117.394 151.813 117.416 152.11 117.496C152.408 117.575 152.686 117.71 152.929 117.893C153.172 118.076 153.375 118.303 153.527 118.562C153.679 118.821 153.777 119.106 153.814 119.401C153.852 119.697 153.829 119.996 153.746 120.283C153.664 120.569 153.523 120.837 153.333 121.072H153.334Z" fill="#CCCCCC"/>
<path d="M180.418 107.836L148.707 147.021C148.518 147.255 148.282 147.451 148.014 147.598C147.746 147.744 147.45 147.838 147.144 147.875C146.839 147.911 146.528 147.889 146.231 147.81C145.934 147.73 145.656 147.595 145.413 147.413C145.17 147.23 144.967 147.002 144.815 146.744C144.664 146.485 144.566 146.2 144.528 145.905C144.491 145.61 144.513 145.311 144.596 145.024C144.678 144.738 144.818 144.47 145.007 144.235L176.718 105.051C176.908 104.816 177.143 104.619 177.411 104.472C177.68 104.325 177.975 104.231 178.281 104.194C178.588 104.158 178.898 104.18 179.196 104.259C179.493 104.338 179.771 104.473 180.014 104.656C180.258 104.839 180.461 105.067 180.613 105.326C180.765 105.585 180.862 105.87 180.9 106.166C180.937 106.461 180.914 106.761 180.831 107.047C180.749 107.334 180.608 107.602 180.418 107.836H180.418Z" fill="#CCCCCC"/>
<path d="M126.335 173.196C134.871 173.196 141.791 166.521 141.791 158.287C141.791 150.053 134.871 143.378 126.335 143.378C117.798 143.378 110.878 150.053 110.878 158.287C110.878 166.521 117.798 173.196 126.335 173.196Z" fill="#1D266E"/>
<path d="M182.102 138.805L143.154 186.932C142.748 187.331 142.204 187.572 141.625 187.609C141.046 187.646 140.473 187.476 140.016 187.132C139.559 186.787 139.249 186.293 139.145 185.742C139.042 185.192 139.152 184.624 139.455 184.147L178.402 136.02C178.808 135.621 179.353 135.38 179.932 135.343C180.51 135.306 181.083 135.476 181.54 135.82C181.998 136.164 182.307 136.659 182.411 137.21C182.514 137.76 182.404 138.328 182.102 138.805Z" fill="#CCCCCC"/>
<path d="M207.367 127.817L153.007 194.99C152.6 195.39 152.056 195.631 151.477 195.667C150.898 195.704 150.326 195.534 149.868 195.19C149.411 194.846 149.101 194.351 148.998 193.801C148.894 193.25 149.004 192.682 149.307 192.205L203.668 125.032C204.074 124.632 204.619 124.391 205.197 124.355C205.776 124.318 206.349 124.488 206.806 124.832C207.263 125.176 207.573 125.671 207.677 126.221C207.78 126.772 207.67 127.34 207.367 127.817V127.817Z" fill="#CCCCCC"/>
<path d="M207.179 157.685L168.232 205.812C167.825 206.211 167.281 206.452 166.702 206.489C166.123 206.526 165.55 206.356 165.093 206.012C164.636 205.667 164.326 205.173 164.222 204.622C164.119 204.072 164.229 203.504 164.532 203.027L203.479 154.9C203.885 154.501 204.43 154.26 205.009 154.223C205.588 154.186 206.16 154.356 206.617 154.7C207.075 155.044 207.385 155.539 207.488 156.09C207.592 156.64 207.481 157.208 207.179 157.685Z" fill="#CCCCCC"/>
<path d="M258.712 163.62L219.765 211.747C219.359 212.146 218.814 212.387 218.235 212.424C217.656 212.461 217.084 212.291 216.627 211.947C216.169 211.602 215.859 211.108 215.756 210.557C215.652 210.007 215.762 209.439 216.065 208.962L255.012 160.835C255.419 160.436 255.963 160.195 256.542 160.158C257.121 160.121 257.694 160.291 258.151 160.635C258.608 160.98 258.918 161.474 259.022 162.025C259.125 162.575 259.015 163.143 258.712 163.62Z" fill="#1D266E"/>
<path d="M232.444 146.697L178.084 213.87C177.677 214.27 177.133 214.511 176.554 214.547C175.975 214.584 175.403 214.414 174.945 214.07C174.488 213.726 174.178 213.231 174.075 212.681C173.971 212.13 174.081 211.562 174.384 211.085L228.745 143.912C229.151 143.513 229.696 143.272 230.274 143.235C230.853 143.198 231.426 143.368 231.883 143.712C232.34 144.056 232.65 144.551 232.754 145.102C232.857 145.652 232.747 146.22 232.444 146.697V146.697Z" fill="#CCCCCC"/>
<path d="M168.415 37.2747C168.414 40.8963 169.334 44.4628 171.096 47.6612C172.857 50.8597 175.405 53.5922 178.517 55.6189C181.629 57.6456 185.209 58.9046 188.943 59.2853C192.677 59.6659 196.45 59.1567 199.933 57.8023C203.415 56.4478 206.499 54.2895 208.915 51.517C211.33 48.7444 213.004 45.4422 213.787 41.9003C214.571 38.3585 214.441 34.6853 213.409 31.2031C212.377 27.7209 210.475 24.5363 207.869 21.9287L207.759 21.8226C207.576 21.6367 207.392 21.4509 207.2 21.2738C207.198 21.2738 207.197 21.2736 207.196 21.2732C207.195 21.2727 207.194 21.2721 207.193 21.2713C207.192 21.2704 207.192 21.2695 207.191 21.2684C207.191 21.2673 207.19 21.2661 207.191 21.265C206.952 21.0526 206.713 20.8402 206.466 20.6366C203.151 17.8337 199.069 16.0116 194.709 15.3885C190.348 14.7654 185.894 15.3676 181.879 17.1232C177.864 18.8787 174.459 21.7131 172.071 25.287C169.684 28.8609 168.414 33.0229 168.415 37.2747V37.2747Z" fill="#2F2E41"/>
<path d="M197.005 60.9465C207.628 60.9465 216.24 52.6402 216.24 42.3938C216.24 32.1474 207.628 23.8411 197.005 23.8411C186.382 23.8411 177.77 32.1474 177.77 42.3938C177.77 52.6402 186.382 60.9465 197.005 60.9465Z" fill="#FFB8B8"/>
<path d="M176.5 47.3381C174.62 39.1658 177.337 30.01 183.262 24.5543C186.242 21.8644 189.948 20.0402 193.955 19.2911C197.962 18.542 202.106 18.8985 205.912 20.3196C206.396 20.508 206.88 20.7141 207.355 20.9293L207.575 21.0296V21.0608C207.618 21.0894 207.661 21.1195 207.704 21.1499C207.793 21.231 207.903 21.2891 208.022 21.319C209.692 21.2769 211.352 21.5756 212.894 22.1956C214.436 22.8157 215.825 23.743 216.97 24.9169C219.951 28.0369 221.355 33.079 220.924 39.1144L220.911 39.3031L220.744 39.4034C218.487 40.783 216.145 42.0285 213.731 43.1331C205.287 46.9628 197.578 47.6724 190.169 45.2997L190.033 45.2562L186.923 40.2294C186.285 43.6964 186.626 55.1965 182.962 55.8196L176.579 47.6847L176.5 47.3381Z" fill="#2F2E41"/>
<path d="M136.009 63.4917C142.555 60.2331 134.136 48.4061 135.828 41.4911C137.52 34.5762 149.701 32.3521 150.477 25.2868C151.253 18.2215 153.079 10.9344 157.912 5.57325C161.001 2.14745 165.552 -0.381602 170.238 0.0475015C171.824 0.192683 173.358 0.665739 174.737 1.43445C176.115 2.20316 177.306 3.24948 178.228 4.50212C179.15 5.75476 179.781 7.18429 180.078 8.69337C180.376 10.2025 180.332 11.7556 179.951 13.2471C181.285 11.4237 184.738 11.8189 185.593 13.8929C186.352 15.7367 184.674 17.97 182.699 18.1332C180.114 21.212 177.154 24.4794 173.105 25.1005C172.46 25.2434 171.789 25.243 171.144 25.0994C170.499 24.9558 169.896 24.6727 169.381 24.2716C168.429 23.3891 168.355 21.625 169.485 20.9655C164.396 22.9153 161.412 28.2223 160.657 33.4533C159.902 38.6843 160.947 43.977 161.635 49.2166C162.324 54.4561 162.62 59.9679 160.49 64.8335C157.974 70.5822 152.18 74.7024 145.857 76.0238C139.534 77.3451 132.8 76.0537 127.077 73.1442C121.353 70.2344 116.581 65.7926 112.682 60.8127C119.398 65.4125 128.69 67.1358 136.009 63.4917Z" fill="#2F2E41"/>
<path d="M187.817 41.1945C181.091 52.3694 193.755 71.1985 180.992 75.1085L182.044 74.0943C189.748 64.9541 173.645 45.6084 181.349 36.4681C182.546 35.1274 183.574 33.6541 184.41 32.0795" fill="#2F2E41"/>
<path d="M177.398 47.1689C177.398 47.1689 183.096 26.6547 207.521 21.9199C207.548 21.9111 207.64 21.8757 207.759 21.8227C207.833 21.7784 207.924 21.7341 208.016 21.6899C207.741 21.5394 207.475 21.4067 207.2 21.2738C207.198 21.2738 207.197 21.2736 207.196 21.2732C207.195 21.2727 207.194 21.2721 207.193 21.2713C207.192 21.2704 207.192 21.2695 207.191 21.2684C207.191 21.2673 207.19 21.2661 207.19 21.265C206.952 21.0526 206.713 20.8402 206.466 20.6366L205.768 20.6632C205.768 20.6632 181.261 16.9197 177.398 47.1689Z" fill="#FD6584"/>
<path d="M4.07385e-06 403.117C-0.000355427 403.233 0.0230819 403.348 0.0689553 403.455C0.114829 403.563 0.182242 403.66 0.267312 403.742C0.352382 403.824 0.453425 403.889 0.564642 403.933C0.675858 403.978 0.795045 404 0.915348 404H551.085C551.328 404 551.56 403.907 551.732 403.741C551.904 403.576 552 403.351 552 403.117C552 402.883 551.904 402.658 551.732 402.493C551.56 402.327 551.328 402.234 551.085 402.234H0.915301C0.795004 402.234 0.675827 402.257 0.564618 402.301C0.453409 402.345 0.352364 402.41 0.2673 402.492C0.182237 402.574 0.114828 402.672 0.0689553 402.779C0.023083 402.886 -0.000350293 403.001 4.07385e-06 403.117V403.117Z" fill="#CCCCCC"/>
</g>
<defs>
<clipPath id="clip0_1_491">
<rect width="552" height="404" fill="white"/>
</clipPath>
</defs>
</svg>
