<svg width="490" height="227" viewBox="0 0 490 227" fill="none" xmlns="http://www.w3.org/2000/svg">
<path d="M443.013 182.711H69.9866C65.2179 182.706 60.6461 180.879 57.2741 177.63C53.9021 174.382 52.0054 169.978 52 165.385V29.0368C52.0054 24.4433 53.9022 20.0394 57.2741 16.7912C60.6461 13.5431 65.2179 11.716 69.9866 11.7108H443.013C447.782 11.716 452.354 13.5431 455.726 16.7912C459.098 20.0394 460.995 24.4433 461 29.0368V165.385C460.995 169.978 459.098 174.382 455.726 177.63C452.354 180.879 447.782 182.706 443.013 182.711Z" fill="white"/>
<path d="M443.013 182.711H69.9866C65.2179 182.706 60.6461 180.879 57.2741 177.63C53.9021 174.382 52.0054 169.978 52 165.385V29.0368C52.0054 24.4433 53.9022 20.0394 57.2741 16.7912C60.6461 13.5431 65.2179 11.716 69.9866 11.7108H443.013C447.782 11.716 452.354 13.5431 455.726 16.7912C459.098 20.0394 460.995 24.4433 461 29.0368V165.385C460.995 169.978 459.098 174.382 455.726 177.63C452.354 180.879 447.782 182.706 443.013 182.711ZM69.9866 13.2174C65.6311 13.2174 61.4539 14.8841 58.3741 17.8508C55.2943 20.8175 53.564 24.8412 53.564 29.0368V165.385C53.564 167.462 53.9888 169.519 54.8141 171.439C55.6394 173.358 56.8491 175.102 58.3741 176.571C59.8991 178.04 61.7095 179.205 63.702 180C65.6944 180.795 67.83 181.204 69.9866 181.204H443.013C445.17 181.204 447.306 180.795 449.298 180C451.29 179.205 453.101 178.04 454.626 176.571C456.151 175.102 457.361 173.358 458.186 171.439C459.011 169.519 459.436 167.462 459.436 165.385V113.974C459.436 87.2519 448.416 61.624 428.8 42.7284C409.184 23.8329 382.579 13.2174 354.837 13.2174H69.9866Z" fill="#E6E6E6"/>
<path d="M35.7264 197.334C35.8787 196.326 34.7819 195.337 33.2765 195.126C31.7711 194.915 30.4273 195.562 30.2749 196.57C30.1225 197.578 31.2194 198.567 32.7247 198.778C34.2301 198.989 35.574 198.342 35.7264 197.334Z" fill="#FF6584"/>
<path d="M27.9382 191.611C27.9455 190.685 27.4092 189.931 26.7404 189.926C26.0717 189.921 25.5236 190.668 25.5163 191.593C25.5091 192.519 26.0453 193.273 26.7141 193.278C27.3829 193.283 27.931 192.537 27.9382 191.611Z" fill="#E6E6E6"/>
<path d="M25.2971 180.952C25.3044 180.026 24.7681 179.271 24.0993 179.267C23.4305 179.262 22.8825 180.008 22.8752 180.934C22.868 181.86 23.4042 182.614 24.073 182.619C24.7418 182.624 25.2898 181.877 25.2971 180.952Z" fill="#3F3D56"/>
<path d="M45.835 199.711C45.8422 198.786 45.306 198.031 44.6372 198.026C43.9684 198.021 43.4203 198.768 43.4131 199.694C43.4058 200.619 43.9421 201.374 44.6108 201.379C45.2796 201.383 45.8277 200.637 45.835 199.711Z" fill="#E6E6E6"/>
<path d="M477.945 12.2616C478.276 11.0026 477.021 9.61015 475.142 9.15149C473.262 8.69283 471.469 9.34164 471.138 10.6007C470.807 11.8597 472.062 13.2522 473.942 13.7109C475.821 14.1695 477.614 13.5207 477.945 12.2616Z" fill="#FF6584"/>
<path d="M483.296 19.1761C483.432 18.0034 482.855 16.9789 482.008 16.8877C481.161 16.7966 480.364 17.6733 480.228 18.846C480.092 20.0187 480.668 21.0433 481.515 21.1344C482.363 21.2256 483.16 20.3488 483.296 19.1761Z" fill="#E6E6E6"/>
<path d="M485.186 33.0238C485.322 31.8511 484.746 30.8265 483.899 30.7354C483.051 30.6442 482.254 31.521 482.118 32.6937C481.982 33.8664 482.559 34.8909 483.406 34.9821C484.253 35.0732 485.05 34.1965 485.186 33.0238Z" fill="#3F3D56"/>
<path d="M461.716 6.63192C461.852 5.45923 461.275 4.43468 460.428 4.34352C459.581 4.25237 458.784 5.12913 458.648 6.30182C458.511 7.47452 459.088 8.49907 459.935 8.59022C460.782 8.68138 461.58 7.80461 461.716 6.63192Z" fill="#E6E6E6"/>
<path d="M473.267 2.45346C473.404 1.28076 472.827 0.256211 471.98 0.165057C471.133 0.0739022 470.335 0.950661 470.199 2.12336C470.063 3.29605 470.64 4.3206 471.487 4.41175C472.334 4.50291 473.131 3.62615 473.267 2.45346Z" fill="#FF6584"/>
<path d="M201 94.2108C201.02 107.892 195.784 121.095 186.304 131.266V131.274C184.964 132.712 183.548 134.084 182.063 135.383C180.543 136.711 178.949 137.959 177.289 139.121C176.131 139.937 174.941 140.708 173.721 141.433C172.273 142.301 170.784 143.104 169.252 143.842C168.118 144.393 166.96 144.907 165.778 145.383C158.725 148.244 151.15 149.715 143.499 149.711C139.178 149.715 134.87 149.249 130.658 148.321C128.709 147.893 126.787 147.364 124.898 146.735C124.17 146.501 123.443 146.244 122.723 145.972C118.357 144.343 114.218 142.2 110.398 139.59C102.324 134.103 95.8496 126.702 91.5993 118.099C87.349 109.496 85.4656 99.9818 86.1305 90.4725C86.7955 80.9633 89.9864 71.7796 95.3959 63.8061C100.805 55.8327 108.251 49.3382 117.016 44.9483C125.78 40.5585 135.569 38.4212 145.438 38.7423C155.306 39.0635 164.923 41.8323 173.362 46.782C181.8 51.7318 188.776 58.6956 193.617 67.0026C198.457 75.3096 201 84.6799 201 94.2108V94.2108Z" fill="#F2F2F2"/>
<path d="M372.889 52.7108H274.107C273.282 52.7096 272.492 52.393 271.91 51.8306C271.327 51.2681 271 50.5057 271 49.7108C271 48.9159 271.327 48.1535 271.91 47.5911C272.492 47.0286 273.282 46.712 274.107 46.7108H372.889C373.714 46.7108 374.505 47.0269 375.089 47.5895C375.672 48.1521 376 48.9152 376 49.7108C376 50.5065 375.672 51.2695 375.089 51.8321C374.505 52.3947 373.714 52.7108 372.889 52.7108V52.7108Z" fill="#1D266E"/>
<path d="M372.893 93.7108H274.107C273.282 93.7096 272.492 93.3931 271.91 92.8306C271.327 92.2681 271 91.5057 271 90.7108C271 89.9159 271.327 89.1535 271.91 88.5911C272.492 88.0286 273.282 87.712 274.107 87.7108H372.893C373.718 87.712 374.508 88.0286 375.09 88.5911C375.673 89.1535 376 89.9159 376 90.7108C376 91.5057 375.673 92.2681 375.09 92.8306C374.508 93.3931 373.718 93.7096 372.893 93.7108V93.7108Z" fill="#E6E6E6"/>
<path d="M372.889 134.711H274.107C273.282 134.71 272.492 134.393 271.91 133.831C271.327 133.268 271 132.506 271 131.711C271 130.916 271.327 130.154 271.91 129.591C272.492 129.029 273.282 128.712 274.107 128.711H372.889C373.714 128.711 374.505 129.027 375.089 129.59C375.672 130.152 376 130.915 376 131.711C376 132.506 375.672 133.27 375.089 133.832C374.505 134.395 373.714 134.711 372.889 134.711V134.711Z" fill="#E6E6E6"/>
<path d="M125.05 224.069C113.892 209.633 107.444 193.491 107.232 175.088C106.873 174.096 106.932 173.006 107.398 172.057C107.864 171.108 108.698 170.377 109.716 170.025L147.746 156.937C148.766 156.587 149.886 156.645 150.862 157.098C151.838 157.551 152.589 158.362 152.951 159.353L170.768 208.334C171.127 209.326 171.068 210.416 170.602 211.365C170.136 212.314 169.303 213.044 168.284 213.396L130.254 226.485C129.234 226.835 128.114 226.777 127.138 226.324C126.162 225.871 125.411 225.06 125.05 224.069V224.069Z" fill="#E6E6E6"/>
<path d="M122.636 208.635C115.946 202.003 113.083 190.175 111.217 176.991C110.881 176.058 110.937 175.032 111.372 174.139C111.806 173.246 112.585 172.558 113.536 172.227L146.118 160.923C147.07 160.594 148.116 160.649 149.027 161.075C149.938 161.502 150.64 162.265 150.977 163.197L166.783 206.997C167.119 207.93 167.063 208.956 166.628 209.849C166.193 210.743 165.415 211.43 164.464 211.761L144.28 218.764C140.04 220.229 135.379 219.986 131.322 218.087C127.264 216.189 124.14 212.789 122.636 208.635V208.635Z" fill="white"/>
<path d="M151.912 186.776L126.19 195.619C125.987 195.689 125.772 195.719 125.557 195.709C125.342 195.699 125.131 195.648 124.937 195.559C124.742 195.47 124.568 195.345 124.424 195.192C124.279 195.038 124.168 194.858 124.095 194.663C124.023 194.468 123.991 194.261 124.002 194.054C124.013 193.847 124.066 193.644 124.158 193.457C124.25 193.269 124.38 193.101 124.539 192.962C124.699 192.823 124.885 192.716 125.088 192.646L150.81 183.803C151.22 183.662 151.67 183.684 152.063 183.863C152.456 184.042 152.759 184.364 152.905 184.759C153.051 185.153 153.028 185.587 152.842 185.965C152.656 186.343 152.321 186.635 151.912 186.776H151.912Z" fill="#1D266E"/>
<path d="M128.903 185.714L123.206 187.62C123.002 187.689 122.785 187.719 122.569 187.709C122.352 187.699 122.14 187.649 121.944 187.562C121.748 187.475 121.572 187.353 121.427 187.202C121.281 187.052 121.169 186.876 121.096 186.684C121.023 186.493 120.991 186.29 121.002 186.087C121.013 185.884 121.066 185.685 121.159 185.501C121.252 185.318 121.383 185.153 121.544 185.017C121.705 184.881 121.893 184.776 122.097 184.707L127.794 182.801C127.998 182.733 128.215 182.703 128.431 182.713C128.648 182.723 128.86 182.773 129.056 182.859C129.252 182.946 129.428 183.069 129.573 183.219C129.719 183.37 129.831 183.546 129.904 183.737C129.977 183.929 130.009 184.132 129.998 184.335C129.987 184.538 129.934 184.737 129.841 184.92C129.748 185.104 129.617 185.268 129.456 185.405C129.295 185.541 129.107 185.646 128.903 185.714Z" fill="#1D266E"/>
<path d="M155.951 199.775L131.113 208.619C130.718 208.76 130.283 208.738 129.904 208.558C129.525 208.379 129.233 208.057 129.092 207.663C128.951 207.269 128.973 206.835 129.152 206.457C129.332 206.079 129.654 205.787 130.049 205.646L154.887 196.802C155.282 196.662 155.717 196.684 156.096 196.863C156.475 197.043 156.767 197.365 156.908 197.759C157.049 198.153 157.027 198.586 156.848 198.965C156.668 199.343 156.346 199.634 155.951 199.775Z" fill="#1D266E"/>
<path d="M153.911 193.521L128.19 201.627C127.78 201.756 127.33 201.736 126.937 201.571C126.544 201.407 126.241 201.112 126.095 200.75C125.949 200.389 125.972 199.991 126.158 199.644C126.344 199.298 126.678 199.03 127.088 198.901L152.809 190.796C153.012 190.731 153.227 190.703 153.442 190.713C153.657 190.722 153.868 190.769 154.062 190.85C154.257 190.931 154.432 191.046 154.576 191.187C154.721 191.327 154.832 191.492 154.905 191.671C154.977 191.85 155.009 192.04 154.998 192.23C154.987 192.42 154.934 192.606 154.842 192.778C154.749 192.95 154.62 193.104 154.46 193.231C154.3 193.358 154.114 193.457 153.911 193.521Z" fill="#1D266E"/>
<path d="M131.118 69.2421C131.929 75.528 136.464 80.7108 143.059 80.7108C146.226 80.7108 149.263 79.5025 151.503 77.3517C153.742 75.2009 155 72.2838 155 69.2421C155 62.9081 149.626 58.359 143.059 57.7734C136.091 57.152 130.076 61.1718 131.118 69.2421Z" fill="#2F2E41"/>
<path d="M154 148.691C146.368 150.265 138.552 150.015 131 147.957C134.584 145.583 145.456 147.041 154 148.691Z" fill="#2F2E41"/>
<path d="M106.197 169.511L111.68 155.711L116 158.21L113.391 172.248C113.652 173.138 113.67 174.086 113.443 174.985C113.215 175.884 112.751 176.7 112.103 177.34C111.455 177.979 110.649 178.418 109.774 178.607C108.9 178.796 107.992 178.726 107.153 178.407C106.314 178.088 105.578 177.531 105.026 176.8C104.474 176.069 104.129 175.192 104.03 174.267C103.93 173.343 104.081 172.408 104.463 171.568C104.846 170.728 105.447 170.015 106.197 169.511Z" fill="#FFB6B6"/>
<path d="M166.695 132.085V132.092C166.484 136.841 166.195 141.357 165.952 144.833C158.903 147.67 151.333 149.129 143.687 149.124C139.368 149.129 135.063 148.667 130.853 147.746C128.906 147.322 126.985 146.797 125.097 146.173C125.36 146.011 125.644 145.883 125.942 145.791C128.757 144.878 125.973 144.046 125.996 143.177C126.082 140.002 126.997 136.189 128.178 132.534L122.923 145.417L120.186 152.113C120.186 152.113 120.279 157.895 118.543 156.128C116.799 154.36 116.924 160.082 116.924 160.082C116.382 160.452 115.916 160.914 115.548 161.445C115.393 161.684 115.335 161.969 115.384 162.247V162.254C115.462 162.472 115.617 162.657 115.822 162.779C117.003 163.542 115.306 165.565 114.555 166.366C114.351 166.583 114.218 166.711 114.218 166.711L107 166.216V166.082C107.031 165.265 107.227 160.966 108.345 159.94C109.573 158.809 108.971 157.019 108.971 157.019C108.971 157.019 112.177 154.3 110.027 152.09C109.166 151.199 109.55 145.919 110.605 139.088C112.912 124.018 118.442 101.398 120.835 101.721C121.328 99.4262 122.473 97.307 124.144 95.5967C125.816 93.8865 127.948 92.6516 130.306 92.0285L138.103 89.9763L139.495 84.7108H150.475L152.383 88.1712L160.384 91.6316L160.485 91.6765L160.736 91.7813L160.83 92.0659C160.83 92.0659 160.822 92.0735 160.83 92.0735L165.279 105.458C167.282 107.66 167.203 120.528 166.695 132.085Z" fill="#1D266E"/>
<path d="M185.55 159.348L178 146.611L182.99 144.711L192.695 155.318C193.601 155.652 194.388 156.214 194.969 156.942C195.549 157.669 195.9 158.533 195.982 159.435C196.063 160.338 195.872 161.243 195.43 162.05C194.988 162.858 194.313 163.534 193.48 164.004C192.647 164.474 191.689 164.719 190.715 164.711C189.74 164.703 188.788 164.442 187.964 163.958C187.14 163.475 186.478 162.787 186.051 161.972C185.625 161.158 185.452 160.249 185.55 159.348Z" fill="#FFB6B6"/>
<path d="M160 91.7108C161.342 94.008 173.618 99.9162 171.491 105.848C171.491 105.848 183.023 140.214 184.523 139.99C186.022 139.766 187.486 143.315 187.486 143.315C187.486 143.315 187.168 145.632 188.103 144.67C189.039 143.707 188.815 146.231 188.815 146.231C188.815 146.231 188.367 148.458 189.554 147.852C190.742 147.247 189.18 151.51 189.18 151.51L182.043 154.711L180.687 152.788C180.687 152.788 177.789 152.262 179.152 151.846C180.516 151.429 177.87 150.028 177.87 150.028C177.87 150.028 175.102 148.236 175.487 145.268C175.873 142.3 168.304 136.466 168.304 136.466C163.1 126.68 160.253 116.633 160.263 106.269L160 91.7108Z" fill="#1D266E"/>
<path d="M144 81.7108C150.075 81.7108 155 77.0098 155 71.2108C155 65.4118 150.075 60.7108 144 60.7108C137.925 60.7108 133 65.4118 133 71.2108C133 77.0098 137.925 81.7108 144 81.7108Z" fill="#FFB6B6"/>
<path d="M133.451 72.2899C133.786 74.5531 135.749 77.7108 135.289 77.7108C134.83 77.7108 131.562 68.3809 134.83 67.7725C137.2 67.3313 137.73 67.7183 139.946 66.7742L139.633 67.0633C141.099 68.1113 143.14 67.4653 144.813 66.7832C146.491 66.1056 148.527 65.4596 149.998 66.5031C150.922 67.1582 151.313 68.2965 151.887 69.2633C152.462 70.2345 153.524 71.1515 154.618 70.8534C155.044 70.6915 155.407 70.401 155.655 70.0236C155.903 69.6461 156.022 69.2013 155.997 68.7528C155.992 67.8584 154.807 67.0075 155.206 66.205C156.389 63.8268 155.325 62.2058 152.747 61.0868C151.809 60.9467 150.872 60.8037 149.934 60.6576C150.425 59.9887 151.021 59.4002 151.699 58.9139C151.412 58.1921 150.917 57.5686 150.274 57.1205C149.479 56.7575 148.594 56.6318 147.727 56.7591C145.788 56.8584 143.85 56.9578 141.913 57.0572C140.471 57.0319 139.039 57.3059 137.712 57.8613C136.112 58.6699 135.064 60.2465 134.301 61.8502C132.591 65.4551 132.862 68.3553 133.451 72.2899Z" fill="#2F2E41"/>
<path d="M404.325 65.7108H241.675C241.496 65.7108 241.324 65.6055 241.198 65.4179C241.071 65.2304 241 64.976 241 64.7108C241 64.4456 241.071 64.1913 241.198 64.0037C241.324 63.8162 241.496 63.7108 241.675 63.7108H404.325C404.504 63.7108 404.676 63.8162 404.802 64.0037C404.929 64.1913 405 64.4456 405 64.7108C405 64.976 404.929 65.2304 404.802 65.4179C404.676 65.6055 404.504 65.7108 404.325 65.7108Z" fill="#E6E6E6"/>
<path d="M404.325 105.711H241.675C241.496 105.711 241.324 105.658 241.198 105.564C241.071 105.471 241 105.343 241 105.211C241 105.078 241.071 104.951 241.198 104.857C241.324 104.764 241.496 104.711 241.675 104.711H404.325C404.504 104.711 404.676 104.764 404.802 104.857C404.929 104.951 405 105.078 405 105.211C405 105.343 404.929 105.471 404.802 105.564C404.676 105.658 404.504 105.711 404.325 105.711Z" fill="#E6E6E6"/>
<path d="M404.325 146.711H241.675C241.496 146.711 241.324 146.605 241.198 146.418C241.071 146.23 241 145.976 241 145.711C241 145.446 241.071 145.191 241.198 145.004C241.324 144.816 241.496 144.711 241.675 144.711H404.325C404.504 144.711 404.676 144.816 404.802 145.004C404.929 145.191 405 145.446 405 145.711C405 145.976 404.929 146.23 404.802 146.418C404.676 146.605 404.504 146.711 404.325 146.711Z" fill="#E6E6E6"/>
<path d="M429.055 143.711C423.076 143.711 417.294 141.65 412.75 137.9C411.234 136.648 409.619 134.471 407.949 131.431C406.884 129.472 406.287 127.308 406.203 125.097C406.119 122.887 406.549 120.686 407.463 118.657C406.582 119.522 405.608 120.293 404.557 120.957L404.026 121.298L403.996 120.683C403.975 120.284 403.965 119.885 403.965 119.499C403.965 117.225 405.748 114.916 404.926 112.814C401.46 103.952 390.469 95.1452 406.399 81.4304C407.873 80.1617 405.904 77.6251 405.904 75.7056C405.904 56.8938 433.456 24.3488 441.264 41.5894C450.894 62.8513 467.485 60.5771 474.836 64.9687L474.942 65.2794L474.628 65.4021C473.019 66.0545 471.325 66.4893 469.593 66.6943C471.44 67.0577 473.324 67.2101 475.207 67.1482L475.499 67.1384L475.57 67.4123C476.271 70.1249 476.625 72.91 476.625 75.7056L476.623 76.0078C476.617 78.1312 477.074 80.232 477.965 82.1735C478.857 84.1149 480.162 85.8532 481.796 87.2751C484.377 89.5463 486.44 92.3115 487.852 95.3945C489.265 98.4776 489.996 101.811 490 105.182C490 109.17 487.191 114.405 484.835 118.094C484.238 119.034 483.428 119.831 482.466 120.425C481.504 121.02 480.415 121.397 479.28 121.527C478.206 121.658 477.115 121.559 476.084 121.238C475.054 120.917 474.109 120.381 473.317 119.668C474.432 121.832 475.886 123.818 477.626 125.556L477.948 125.875L477.549 126.1C473.713 128.258 469.351 129.395 464.911 129.393L464.651 129.393C461.395 129.36 458.165 129.955 455.15 131.143C452.135 132.33 449.396 134.086 447.094 136.308C444.749 138.639 441.946 140.494 438.848 141.765C435.751 143.037 432.421 143.698 429.055 143.711Z" fill="#E6E6E6"/>
<path d="M420.382 181.711C420.274 181.711 420.17 181.673 420.088 181.604C420.006 181.536 419.953 181.441 419.938 181.338C418.762 171.21 418.692 160.992 419.728 150.85C421.28 134.851 426.264 111.807 441.193 92.8819C441.229 92.8365 441.273 92.7984 441.324 92.7697C441.375 92.741 441.432 92.7224 441.49 92.7147C441.549 92.7071 441.608 92.7107 441.665 92.7252C441.722 92.7398 441.776 92.7651 441.823 92.7997C441.87 92.8342 441.909 92.8774 441.939 92.9267C441.969 92.976 441.988 93.0305 441.996 93.087C442.004 93.1435 442 93.201 441.985 93.2561C441.97 93.3113 441.944 93.363 441.908 93.4084C427.108 112.17 422.164 135.045 420.623 150.931C419.593 161.005 419.661 171.155 420.828 181.215C420.837 181.277 420.832 181.34 420.814 181.399C420.796 181.459 420.764 181.514 420.722 181.561C420.68 181.608 420.628 181.646 420.569 181.672C420.51 181.698 420.447 181.711 420.382 181.711V181.711Z" fill="#3F3D56"/>
<path d="M432.45 119.711C432.355 119.711 432.262 119.681 432.185 119.627C432.109 119.572 432.051 119.494 432.022 119.406C431.993 119.317 431.993 119.221 432.022 119.132C432.051 119.044 432.108 118.966 432.185 118.911C436.437 116.081 441.031 113.782 445.86 112.066C453.404 109.35 464.876 106.888 476.687 110.584C476.743 110.602 476.795 110.63 476.84 110.667C476.886 110.705 476.923 110.751 476.95 110.802C476.977 110.854 476.993 110.91 476.998 110.968C477.003 111.026 476.997 111.084 476.979 111.139C476.961 111.194 476.932 111.246 476.894 111.29C476.856 111.334 476.809 111.371 476.757 111.398C476.705 111.424 476.647 111.441 476.589 111.445C476.53 111.45 476.471 111.444 476.414 111.426C464.846 107.806 453.581 110.227 446.169 112.896C441.417 114.582 436.898 116.843 432.714 119.626C432.637 119.681 432.545 119.711 432.45 119.711V119.711Z" fill="#3F3D56"/>
<path d="M412.001 70.179C411.994 70.0871 412.018 69.9954 412.07 69.917C412.122 69.8387 412.198 69.7778 412.289 69.743C412.38 69.7083 412.48 69.7014 412.575 69.7235C412.671 69.7456 412.756 69.7954 412.819 69.8659C416.101 73.7828 418.851 78.0682 421.008 82.6232C424.414 89.7371 427.847 100.673 424.853 112.375C424.839 112.431 424.814 112.484 424.778 112.53C424.742 112.577 424.697 112.616 424.645 112.646C424.593 112.676 424.535 112.696 424.475 112.705C424.414 112.714 424.353 112.712 424.293 112.699C424.234 112.685 424.178 112.661 424.129 112.627C424.079 112.593 424.037 112.551 424.006 112.502C423.974 112.453 423.953 112.398 423.943 112.342C423.934 112.285 423.936 112.227 423.951 112.171C426.883 100.709 423.508 89.9713 420.161 82.9816C418.041 78.4996 415.336 74.2829 412.109 70.4285C412.046 70.3582 412.008 70.2708 412.001 70.179V70.179Z" fill="#3F3D56"/>
<path d="M42.9063 135.308C40.6037 133.086 37.8649 131.33 34.8501 130.143C31.8354 128.955 28.6054 128.36 25.3494 128.393L25.0893 128.393C20.6487 128.395 16.2873 127.258 12.4513 125.1L12.0521 124.875L12.3736 124.556C14.1142 122.818 15.5676 120.832 16.6829 118.668C15.8908 119.381 14.946 119.917 13.9155 120.238C12.885 120.559 11.7939 120.658 10.7195 120.527C9.58514 120.397 8.49616 120.02 7.53419 119.425C6.57223 118.831 5.76227 118.034 5.16508 117.094C2.80876 113.405 0 108.17 0 104.182C0.00366702 100.811 0.735059 97.4775 2.14757 94.3945C3.56007 91.3115 5.62271 88.5463 8.20399 86.2752C9.83817 84.8532 11.1435 83.1149 12.0348 81.1735C12.9261 79.2321 13.3833 77.1312 13.3768 75.0078L13.3755 74.7056C13.3751 71.91 13.7291 69.1249 14.4297 66.4123L14.5008 66.1384L14.7928 66.1482C16.6762 66.21 18.5605 66.0577 20.4069 65.6943C18.675 65.4893 16.9807 65.0545 15.372 64.4021L15.0579 64.2794L15.1645 63.9687C22.5145 59.5771 39.1057 61.8513 48.7358 40.5894C56.5444 23.3488 84.0959 55.8938 84.0959 74.7056C84.0959 76.6251 82.1274 79.1617 83.601 80.4304C99.5313 94.1452 88.5396 102.952 85.0741 111.814C84.2519 113.916 86.0347 116.225 86.0347 118.499C86.0347 118.885 86.0245 119.284 86.0044 119.683L85.9737 120.298L85.4425 119.957C84.3918 119.293 83.4178 118.522 82.5372 117.657C83.4507 119.686 83.8813 121.887 83.7971 124.097C83.713 126.308 83.1163 128.472 82.0509 130.431C80.3815 133.471 78.7663 135.648 77.2505 136.9C72.3946 140.91 66.1347 142.979 59.7509 142.683C53.367 142.387 47.3414 139.749 42.9063 135.308H42.9063Z" fill="#E6E6E6"/>
<path d="M69.6177 180.711C69.7259 180.711 69.8304 180.673 69.9121 180.604C69.9937 180.536 70.0471 180.441 70.0623 180.338C71.238 170.21 71.3083 159.992 70.272 149.85C68.7202 133.851 63.7365 110.807 48.8073 91.8819C48.7715 91.8365 48.7268 91.7984 48.6758 91.7697C48.6247 91.7411 48.5683 91.7224 48.5098 91.7147C48.4513 91.7071 48.3918 91.7107 48.3347 91.7252C48.2776 91.7398 48.2241 91.7651 48.1771 91.7997C48.1301 91.8343 48.0907 91.8774 48.061 91.9267C48.0313 91.976 48.0119 92.0305 48.004 92.087C47.9961 92.1435 47.9998 92.201 48.0149 92.2562C48.03 92.3113 48.0562 92.363 48.092 92.4084C62.8923 111.17 67.8358 134.045 69.3767 149.931C70.4074 160.005 70.3388 170.155 69.172 180.215C69.163 180.277 69.1678 180.34 69.1861 180.399C69.2043 180.459 69.2356 180.514 69.2779 180.561C69.3201 180.608 69.3724 180.646 69.431 180.672C69.4896 180.698 69.5533 180.711 69.6177 180.711V180.711Z" fill="#3F3D56"/>
<path d="M57.5502 118.711C57.6452 118.711 57.7377 118.681 57.8145 118.627C57.8913 118.572 57.9486 118.494 57.9779 118.406C58.0073 118.317 58.0073 118.221 57.978 118.132C57.9487 118.044 57.8916 117.966 57.8148 117.911C53.5628 115.081 48.9694 112.782 44.1404 111.066C36.596 108.35 25.1237 105.888 13.3131 109.584C13.2569 109.602 13.2047 109.63 13.1596 109.667C13.1145 109.705 13.0773 109.751 13.0502 109.802C13.0231 109.854 13.0066 109.91 13.0016 109.968C12.9966 110.026 13.0033 110.084 13.0212 110.139C13.0391 110.194 13.0678 110.246 13.1059 110.29C13.144 110.334 13.1905 110.371 13.2429 110.398C13.2954 110.424 13.3526 110.441 13.4114 110.445C13.4702 110.45 13.5294 110.444 13.5856 110.426C25.1543 106.806 36.4187 109.227 43.8314 111.896C48.5828 113.582 53.1025 115.843 57.2864 118.626C57.363 118.681 57.4554 118.711 57.5502 118.711V118.711Z" fill="#3F3D56"/>
<path d="M77.9988 69.179C78.0059 69.0871 77.9819 68.9954 77.9302 68.9171C77.8785 68.8387 77.8017 68.7778 77.7109 68.743C77.6201 68.7083 77.5199 68.7014 77.4247 68.7235C77.3295 68.7456 77.2441 68.7954 77.1809 68.8659C73.8995 72.7829 71.1489 77.0682 68.9924 81.6232C65.5856 88.7371 62.1526 99.6734 65.1466 111.375C65.1607 111.431 65.1864 111.484 65.2222 111.53C65.258 111.577 65.3032 111.616 65.3552 111.646C65.4073 111.676 65.4651 111.696 65.5254 111.705C65.5857 111.714 65.6473 111.712 65.7067 111.699C65.7661 111.685 65.822 111.661 65.8714 111.627C65.9208 111.593 65.9625 111.551 65.9944 111.502C66.0262 111.453 66.0474 111.398 66.0568 111.342C66.0662 111.285 66.0636 111.227 66.0491 111.171C63.1167 99.7091 66.4916 88.9713 69.839 81.9816C71.959 77.4996 74.6636 73.2829 77.8907 69.4285C77.9539 69.3582 77.9918 69.2708 77.9988 69.179Z" fill="#3F3D56"/>
</svg>
